<svg height="512" viewBox="0 0 60 60" width="512" xmlns="http://www.w3.org/2000/svg"><g fill="#000" fill-rule="nonzero"><path d="M30 16.63c-3.917 0-7.237-1.759-7.893-4.174a1.925 1.925 0 00-.983-1.226 2.066 2.066 0 00-1.659-.112l-9.358 3.325a2.973 2.973 0 00-1.582 1.278L.437 29.039a2.969 2.969 0 00.242 3.447C2.269 34.415 7.467 36.3 13 37.009V55c0 3.687 9.04 5 17.5 5C40.986 60 47 58.178 47 55V36.857c5.091-.825 10.876-2.612 12.319-4.368a2.97 2.97 0 00.245-3.448l-8.086-13.315a2.961 2.961 0 00-1.578-1.278l-2.66-.948A7.461 7.461 0 0152 12a1 1 0 000-2c-7.878 0-8-8.634-8-9a1 1 0 00-2-.027V1c0 .368-.091 9-8 9a1 1 0 000 2 7.917 7.917 0 013.754.855c-.899 2.21-4.06 3.775-7.754 3.775zm19.766.129l8.091 13.323a.974.974 0 01-.08 1.133c-.762.928-5.142 2.676-10.777 3.618V30a1 1 0 00-2 0v25c0 .94-3.651 3-14.5 3C18.816 58 15 55.769 15 55V30a1 1 0 00-2 0v4.994c-5.625-.752-9.826-2.625-10.781-3.783a.974.974 0 01-.074-1.132l8.092-13.324c.12-.2.307-.35.528-.422l9.41-3.361c.9 3.331 4.944 5.658 9.825 5.658 4.346 0 8.019-1.847 9.387-4.57C41.939 16.639 42 20.751 42 21a1 1 0 002 .027V21a11.674 11.674 0 011.759-5.9l3.488 1.238a.97.97 0 01.519.421zM43 5.966A9.5 9.5 0 0047.446 11 9.5 9.5 0 0043 16.034 9.5 9.5 0 0038.554 11 9.5 9.5 0 0043 5.966z"/><path d="M34 37c0-.286.1-7 6-7a1 1 0 000-2c-5.9 0-6-6.716-6-7v-.006A1 1 0 1032 21c0 .286-.1 7-6 7a1 1 0 000 2c5.9 0 6 6.716 6 7v.006A1 1 0 0034 37zm-4.026-8A7.638 7.638 0 0033 25.527 7.638 7.638 0 0036.026 29 7.638 7.638 0 0033 32.473 7.638 7.638 0 0029.974 29zM37 39v2a1 1 0 002 0v-2a1 1 0 00-2 0zM38 44a1 1 0 00-1 1v2a1 1 0 002 0v-2a1 1 0 00-1-1zM42 42h-2a1 1 0 000 2h2a1 1 0 000-2zM36 42h-2a1 1 0 000 2h2a1 1 0 000-2z"/></g></svg>