<?xml version="1.0" encoding="UTF-8" standalone="no"?>
<svg
   xmlns:dc="http://purl.org/dc/elements/1.1/"
   xmlns:cc="http://creativecommons.org/ns#"
   xmlns:rdf="http://www.w3.org/1999/02/22-rdf-syntax-ns#"
   xmlns:svg="http://www.w3.org/2000/svg"
   xmlns="http://www.w3.org/2000/svg"
   version="1.1"
   id="svg827"
   width="960"
   height="960"
   viewBox="0 0 960 960">
  <metadata
     id="metadata833">
    <rdf:RDF>
      <cc:Work
         rdf:about="">
        <dc:format>image/svg+xml</dc:format>
        <dc:type
           rdf:resource="http://purl.org/dc/dcmitype/StillImage" />
        <dc:title></dc:title>
      </cc:Work>
    </rdf:RDF>
  </metadata>
  <defs
     id="defs831" />
  <path
     id="path6410"
     d="m 249.5151,180.82366 v 68.46355 h -68.4634 v 68.4635 h -68.4636 v 68.46355 68.46353 68.46355 h 68.4636 v 68.45507 h 68.4634 v 68.46358 h 68.4636 v 68.46355 h 68.4635 v 68.46354 h 68.4635 v 68.46355 h 68.4553 v -68.46355 h 68.4634 v -68.46354 h 68.4634 v -68.46355 h 68.4634 v -68.46358 h 68.464 v -68.45507 h 68.4635 v -68.46355 -68.46353 -68.46355 h -68.4635 v -68.4635 h -68.464 v -68.46355 h -68.4634 -68.4634 v 68.46355 H 523.361 v 68.4635 h -68.4553 v -68.4635 h -68.4635 v -68.46355 h -68.4635 z"
     style="opacity:1;fill:#000000;fill-opacity:1;stroke:none;stroke-width:41.53443527;stroke-miterlimit:4;stroke-dasharray:none;stroke-opacity:1" />
  <path
     id="rect6412"
     d="m 249.5174,249.28721 v 68.4635 h -68.4635 v 68.46355 68.46353 68.46355 h 68.4635 v 68.45507 h 68.4552 v 68.46358 h 68.4636 v 68.46355 h 68.4634 v 68.46354 h 68.4635 v -68.46354 h 68.4635 V 660.05999 H 660.29 v -68.46358 h 68.4639 v -68.45507 h 68.4635 v -68.46355 -68.46353 -68.46355 h -68.4635 v -68.4635 H 660.29 591.8266 v 68.4635 h -68.4635 v 68.46355 h -68.4635 v -68.46355 h -68.4634 v -68.4635 h -68.4636 z"
     style="opacity:1;fill:#333333;fill-opacity:1;stroke:none;stroke-width:41.53443527;stroke-miterlimit:4;stroke-dasharray:none;stroke-opacity:1" />
</svg>
