<?xml version="1.0" encoding="utf-8"?>
<!-- Generator: Adobe Illustrator 21.0.0, SVG Export Plug-In . SVG Version: 6.00 Build 0)  -->
<svg version="1.1" id="Layer_1" xmlns="http://www.w3.org/2000/svg" xmlns:xlink="http://www.w3.org/1999/xlink" x="0px" y="0px"
	 viewBox="0 0 132.3 124.9" style="enable-background:new 0 0 132.3 124.9;" xml:space="preserve">
<style type="text/css">
	.st0{fill:#07042D;}
	.st1{fill:#FFE21F;}
	.st2{fill:#8342BE;}
	.st3{fill:#FF5A8E;}
	.st4{fill:#61DC78;}
	.st5{fill:#E7E7EF;}
	.st6{fill:#C2C2D6;}
	.st7{fill:#FF2968;}
	.st8{fill:#C40851;}
	.st9{fill:#FFEEFF;}
	.st10{fill:#4C4C70;}
	.st11{fill:#353554;}
	.st12{fill:#8686B2;}
	.st13{fill:#E8DC52;}
	.st14{fill:#F47D25;}
	.st15{fill:#FFA72E;}
	.st16{fill:#444468;}
	.st17{fill:#8E8EB7;}
	.st18{fill:#FFD91D;}
	.st19{fill:#E8B714;}
	.st20{fill:#FF99BA;}
	.st21{fill:#991054;}
	.st22{fill:#5FAA77;}
	.st23{fill:#195B4E;}
	.st24{fill:#E6E2AD;}
	.st25{fill:#C9704F;}
	.st26{fill:#EDA661;}
	.st27{fill:#FFFFEB;}
	.st28{fill:#ABABC3;}
	.st29{fill:#C7C7D7;}
	.st30{fill:#8888AA;}
	.st31{fill:#DFDFE8;}
	.st32{fill:#EFEFF3;}
	.st33{fill:#FBFBFB;}
	.st34{fill:#FFFFC9;}
	.st35{fill:#E5E5EC;}
	.st36{fill:#60608D;}
	.st37{fill:#BE523D;}
	.st38{fill:#AF3F27;}
	.st39{fill:#6A30A5;}
	.st40{fill:#532188;}
	.st41{fill:#FFD81F;}
	.st42{fill:#C5C4C4;}
	.st43{fill:#E6E6E6;}
	.st44{fill:#E3E3E3;}
	.st45{fill:#FFFFFF;}
	.st46{fill:#FFFF53;}
</style>
<g>
	<g>
		
			<rect x="36.7" y="14.7" transform="matrix(-1 -1.224647e-16 1.224647e-16 -1 80.8339 80.8339)" class="st39" width="7.3" height="51.4"/>
		
			<rect x="44.1" y="7.3" transform="matrix(-1 -1.224647e-16 1.224647e-16 -1 95.531 73.4854)" class="st39" width="7.3" height="58.8"/>
		
			<rect x="51.4" y="7.3" transform="matrix(-1 -1.224647e-16 1.224647e-16 -1 110.2281 73.4854)" class="st39" width="7.3" height="58.8"/>
		<rect x="58.8" y="7.3" class="st39" width="7.3" height="58.8"/>
		<rect x="66.1" y="7.3" class="st39" width="7.3" height="58.8"/>
		
			<rect x="73.5" y="7.3" transform="matrix(-1 -1.224647e-16 1.224647e-16 -1 154.3196 73.4854)" class="st39" width="7.3" height="58.8"/>
		
			<rect x="80.8" y="7.3" transform="matrix(-1 -1.224647e-16 1.224647e-16 -1 169.0167 73.4854)" class="st39" width="7.3" height="58.8"/>
		
			<rect x="88.2" y="14.7" transform="matrix(-1 -1.224647e-16 1.224647e-16 -1 183.7138 80.8339)" class="st39" width="7.3" height="51.4"/>
		
			<rect x="29.4" y="14.7" transform="matrix(-1 -1.224647e-16 1.224647e-16 -1 66.1368 80.8339)" class="st39" width="7.3" height="51.4"/>
		
			<rect x="95.5" y="14.7" transform="matrix(-1 -1.224647e-16 1.224647e-16 -1 198.4108 80.8339)" class="st39" width="7.3" height="51.4"/>
		
			<rect x="22" y="22" transform="matrix(-1 -1.224647e-16 1.224647e-16 -1 51.4398 88.1825)" class="st39" width="7.3" height="44.1"/>
		
			<rect x="102.9" y="22" transform="matrix(-1 -1.224647e-16 1.224647e-16 -1 213.1079 73.4854)" class="st39" width="7.3" height="29.4"/>
		
			<rect x="102.9" y="44.1" transform="matrix(-1 -1.224647e-16 1.224647e-16 -1 213.1079 102.8795)" class="st40" width="7.3" height="14.7"/>
		
			<rect x="95.5" y="51.4" transform="matrix(-1 -1.224647e-16 1.224647e-16 -1 198.4108 117.5766)" class="st40" width="7.3" height="14.7"/>
		<rect x="80.8" y="58.8" class="st40" width="14.7" height="7.3"/>
		
			<rect x="110.2" y="29.4" transform="matrix(-1 -1.224647e-16 1.224647e-16 -1 227.805 95.531)" class="st40" width="7.3" height="36.7"/>
		
			<rect x="117.6" y="44.1" transform="matrix(-1 -1.224647e-16 1.224647e-16 -1 242.5021 110.2281)" class="st40" width="7.3" height="22"/>
		
			<rect x="14.7" y="29.4" transform="matrix(-1 -1.224647e-16 1.224647e-16 -1 36.7427 95.531)" class="st39" width="7.3" height="36.7"/>
		
			<rect x="7.3" y="44.1" transform="matrix(-1 -1.224647e-16 1.224647e-16 -1 22.0456 110.2281)" class="st39" width="7.3" height="22"/>
		
			<rect x="33.1" y="3.7" transform="matrix(6.123234e-17 -1 1 6.123234e-17 25.7199 47.7655)" class="st0" width="7.3" height="14.7"/>
		
			<rect x="25.7" y="62.5" transform="matrix(6.123234e-17 -1 1 6.123234e-17 -47.7656 106.5539)" class="st0" width="7.3" height="29.4"/>
		
			<rect x="99.2" y="62.5" transform="matrix(6.123234e-17 -1 1 6.123234e-17 25.72 180.0394)" class="st0" width="7.3" height="29.4"/>
		<rect x="22" y="14.7" transform="matrix(6.123234e-17 -1 1 6.123234e-17 7.3485 44.0912)" class="st0" width="7.3" height="7.3"/>
		
			<rect x="7.3" y="66.1" transform="matrix(6.123234e-17 -1 1 6.123234e-17 -58.7883 80.8339)" class="st0" width="7.3" height="7.3"/>
		
			<rect x="66.1" y="14.7" transform="matrix(6.123234e-17 -1 1 6.123234e-17 51.4399 88.1826)" class="st33" width="7.3" height="7.3"/>
		
			<rect x="51.4" y="44.1" transform="matrix(6.123234e-17 -1 1 6.123234e-17 7.3485 102.8795)" class="st33" width="7.3" height="7.3"/>
		
			<rect x="36.7" y="22" transform="matrix(6.123234e-17 -1 1 6.123234e-17 14.6971 66.1368)" class="st33" width="7.3" height="7.3"/>
		
			<rect x="102.9" y="58.8" transform="matrix(6.123234e-17 -1 1 6.123234e-17 44.0914 169.0165)" class="st33" width="7.3" height="7.3"/>
		
			<rect x="62.5" y="18.4" transform="matrix(6.123234e-17 -1 1 6.123234e-17 -3.6742 135.948)" class="st40" width="7.3" height="102.9"/>
		
			<rect x="55" y="69.7" transform="matrix(6.123234e-17 -1 1 6.123234e-17 -18.5074 135.8121)" class="st25" width="7.3" height="15"/>
		
			<rect x="73.5" y="66.1" transform="matrix(6.123234e-17 -1 1 6.123234e-17 7.556537e-05 154.3195)" class="st37" width="7.3" height="22"/>
		
			<rect x="58.8" y="80.6" transform="matrix(-1 -1.224647e-16 1.224647e-16 -1 124.9253 198.1386)" class="st25" width="7.3" height="37"/>
		
			<rect x="66.1" y="80.6" transform="matrix(-1 -1.224647e-16 1.224647e-16 -1 139.6225 198.1386)" class="st25" width="7.3" height="37"/>
		
			<rect x="73.5" y="80.6" transform="matrix(-1 -1.224647e-16 1.224647e-16 -1 154.3196 198.1386)" class="st37" width="7.3" height="37"/>
		<rect x="51.4" y="80.8" class="st41" width="7.3" height="36.7"/>
		<rect x="44.1" y="73.5" class="st41" width="7.3" height="7.3"/>
		<polygon class="st33" points="88.2,36.7 88.2,29.4 80.8,29.4 80.8,44.1 95.5,44.1 95.5,36.7 		"/>
		
			<rect x="29.4" y="95.5" transform="matrix(6.123234e-17 -1 1 6.123234e-17 -51.4399 146.9709)" class="st0" width="36.7" height="7.3"/>
		
			<rect x="66.1" y="95.5" transform="matrix(6.123234e-17 -1 1 6.123234e-17 -14.6971 183.7138)" class="st0" width="36.7" height="7.3"/>
		
			<rect x="14.7" y="22" transform="matrix(6.123234e-17 -1 1 6.123234e-17 -7.3485 44.0912)" class="st0" width="7.3" height="7.3"/>
		
			<rect x="3.7" y="33.1" transform="matrix(6.123234e-17 -1 1 6.123234e-17 -25.7199 47.7655)" class="st0" width="14.7" height="7.3"/>
		
			<rect x="62.5" y="-18.4" transform="matrix(-1.836970e-16 1 -1 -1.836970e-16 69.8112 -62.4627)" class="st0" width="7.3" height="44.1"/>
		
			<rect x="62.5" y="106.6" transform="matrix(-1.836970e-16 1 -1 -1.836970e-16 187.388 55.1141)" class="st0" width="7.3" height="29.4"/>
		
			<rect x="-7.3" y="51.4" transform="matrix(6.123234e-17 -1 1 6.123234e-17 -51.4398 58.7883)" class="st0" width="22" height="7.3"/>
		
			<rect x="91.9" y="3.7" transform="matrix(6.123234e-17 -1 1 6.123234e-17 84.5083 106.554)" class="st0" width="7.3" height="14.7"/>
		
			<rect x="102.9" y="14.7" transform="matrix(6.123234e-17 -1 1 6.123234e-17 88.1826 124.9253)" class="st0" width="7.3" height="7.3"/>
		
			<rect x="117.6" y="66.1" transform="matrix(6.123234e-17 -1 1 6.123234e-17 51.4399 191.0621)" class="st0" width="7.3" height="7.3"/>
		
			<rect x="110.2" y="22" transform="matrix(6.123234e-17 -1 1 6.123234e-17 88.1826 139.6224)" class="st0" width="7.3" height="7.3"/>
		
			<rect x="113.9" y="33.1" transform="matrix(6.123234e-17 -1 1 6.123234e-17 84.5083 157.9937)" class="st0" width="14.7" height="7.3"/>
		
			<rect x="117.6" y="51.4" transform="matrix(6.123234e-17 -1 1 6.123234e-17 73.4855 183.7136)" class="st0" width="22" height="7.3"/>
	</g>
	<rect x="22" y="44.1" class="st40" width="7.3" height="22"/>
	<rect x="29.4" y="51.4" class="st40" width="7.3" height="14.7"/>
	<rect x="36.7" y="58.8" class="st40" width="14.7" height="7.3"/>
	<rect x="14.7" y="29.4" class="st40" width="7.3" height="36.7"/>
	<rect x="7.3" y="44.1" class="st40" width="7.3" height="22"/>
	<polygon class="st33" points="29.4,58.8 29.4,66.1 36.7,66.1 36.7,51.4 22,51.4 22,58.8 	"/>
</g>
</svg>
