<?xml version="1.0" encoding="utf-8"?>
<!-- Generator: Adobe Illustrator 21.0.0, SVG Export Plug-In . SVG Version: 6.00 Build 0)  -->
<svg version="1.1" id="Layer_1" xmlns="http://www.w3.org/2000/svg" xmlns:xlink="http://www.w3.org/1999/xlink" x="0px" y="0px"
	 viewBox="0 0 124.9 161.7" style="enable-background:new 0 0 124.9 161.7;" xml:space="preserve">
<style type="text/css">
	.st0{fill:#07042D;}
	.st1{fill:#FFE21F;}
	.st2{fill:#8342BE;}
	.st3{fill:#FF5A8E;}
	.st4{fill:#61DC78;}
	.st5{fill:#E7E7EF;}
	.st6{fill:#C2C2D6;}
	.st7{fill:#FF2968;}
	.st8{fill:#C40851;}
	.st9{fill:#FFEEFF;}
	.st10{fill:#4C4C70;}
	.st11{fill:#353554;}
	.st12{fill:#8686B2;}
	.st13{fill:#E8DC52;}
	.st14{fill:#F47D25;}
	.st15{fill:#FFA72E;}
	.st16{fill:#444468;}
	.st17{fill:#8E8EB7;}
	.st18{fill:#FFD91D;}
	.st19{fill:#E8B714;}
	.st20{fill:#FF99BA;}
	.st21{fill:#991054;}
	.st22{fill:#5FAA77;}
	.st23{fill:#195B4E;}
	.st24{fill:#E6E2AD;}
	.st25{fill:#C9704F;}
	.st26{fill:#EDA661;}
	.st27{fill:#FFFFEB;}
	.st28{fill:#ABABC3;}
	.st29{fill:#C7C7D7;}
	.st30{fill:#8888AA;}
	.st31{fill:#DFDFE8;}
	.st32{fill:#EFEFF3;}
	.st33{fill:#FBFBFB;}
	.st34{fill:#FFFFC9;}
	.st35{fill:#E5E5EC;}
	.st36{fill:#60608D;}
	.st37{fill:#BE523D;}
	.st38{fill:#AF3F27;}
	.st39{fill:#6A30A5;}
	.st40{fill:#532188;}
	.st41{fill:#FFD81F;}
	.st42{fill:#C5C4C4;}
	.st43{fill:#E6E6E6;}
	.st44{fill:#E3E3E3;}
	.st45{fill:#FFFFFF;}
	.st46{fill:#FFFF53;}
</style>
<g>
	<g>
		
			<rect x="33.1" y="69.8" transform="matrix(6.123234e-17 -1 1 6.123234e-17 -40.4171 113.9025)" class="st0" width="7.3" height="14.7"/>
		
			<rect x="58.8" y="14.7" transform="matrix(6.123234e-17 -1 1 6.123234e-17 22.0457 102.8796)" class="st0" width="7.3" height="51.4"/>
		
			<rect x="58.8" y="0" transform="matrix(6.123234e-17 -1 1 6.123234e-17 36.7428 88.1825)" class="st0" width="7.3" height="51.4"/>
		
			<rect x="58.8" y="-7.3" transform="matrix(6.123234e-17 -1 1 6.123234e-17 58.7883 66.1368)" class="st0" width="7.3" height="22"/>
		
			<rect x="14.7" y="88.2" transform="matrix(6.123234e-17 -1 1 6.123234e-17 -73.4855 110.2282)" class="st0" width="7.3" height="7.3"/>
		
			<rect x="7.3" y="95.5" transform="matrix(6.123234e-17 -1 1 6.123234e-17 -88.1826 110.2282)" class="st0" width="7.3" height="7.3"/>
		
			<rect x="22" y="80.8" transform="matrix(6.123234e-17 -1 1 6.123234e-17 -58.7885 110.2282)" class="st0" width="7.3" height="7.3"/>
		
			<rect x="29.4" y="29.4" transform="matrix(6.123234e-17 -1 1 6.123234e-17 9.094947e-13 66.1368)" class="st0" width="7.3" height="7.3"/>
		
			<rect x="88.2" y="29.4" transform="matrix(6.123234e-17 -1 1 6.123234e-17 58.7885 124.9253)" class="st0" width="7.3" height="7.3"/>
		
			<rect x="73.5" y="66.1" transform="matrix(6.123234e-17 -1 1 6.123234e-17 7.3484 146.9709)" class="st0" width="7.3" height="7.3"/>
		
			<rect x="25.7" y="143.3" transform="matrix(-1.836970e-16 1 -1 -1.836970e-16 180.0394 121.2511)" class="st0" width="7.3" height="14.7"/>
		
			<rect x="91.9" y="143.3" transform="matrix(-1.836970e-16 1 -1 -1.836970e-16 246.1764 55.1141)" class="st0" width="7.3" height="14.7"/>
		
			<rect x="58.8" y="132.3" transform="matrix(-1.836970e-16 1 -1 -1.836970e-16 220.4565 95.5312)" class="st0" width="7.3" height="51.4"/>
		<rect x="14.7" y="95.5" class="st20" width="73.5" height="7.3"/>
		
			<rect x="95.5" y="88.2" transform="matrix(-1.836970e-16 1 -1 -1.836970e-16 198.4108 2.005523e-06)" class="st7" width="7.3" height="22"/>
		<rect x="88.2" y="102.9" class="st8" width="29.4" height="7.3"/>
		
			<rect x="99.2" y="99.2" transform="matrix(-1.836970e-16 1 -1 -1.836970e-16 216.7822 11.0228)" class="st8" width="7.3" height="29.4"/>
		<rect x="7.3" y="102.9" class="st8" width="7.3" height="22"/>
		<rect x="14.7" y="102.9" class="st7" width="7.3" height="14.7"/>
		<rect x="80.8" y="102.9" class="st7" width="7.3" height="22"/>
		<rect x="22" y="102.9" class="st7" width="7.3" height="29.4"/>
		<rect x="73.5" y="110.2" class="st7" width="7.3" height="22"/>
		<rect x="29.4" y="102.9" class="st7" width="7.3" height="36.7"/>
		<rect x="36.7" y="102.9" class="st7" width="7.3" height="36.7"/>
		<rect x="44.1" y="102.9" class="st7" width="7.3" height="36.7"/>
		<rect x="51.4" y="102.9" class="st7" width="7.3" height="36.7"/>
		<rect x="58.8" y="102.9" class="st7" width="7.3" height="36.7"/>
		<rect x="66.1" y="102.9" class="st7" width="7.3" height="36.7"/>
		<rect x="14.7" y="117.6" class="st8" width="7.3" height="22"/>
		<rect x="22" y="132.3" class="st8" width="7.3" height="14.7"/>
		<rect x="88.2" y="117.6" class="st8" width="29.4" height="7.3"/>
		
			<rect x="91.9" y="113.9" transform="matrix(-1.836970e-16 1 -1 -1.836970e-16 224.1306 33.0685)" class="st8" width="7.3" height="29.4"/>
		
			<rect x="88.2" y="117.6" transform="matrix(-1.836970e-16 1 -1 -1.836970e-16 227.8049 44.0913)" class="st8" width="7.3" height="36.7"/>
		
			<rect x="62.5" y="106.6" transform="matrix(-1.836970e-16 1 -1 -1.836970e-16 209.4336 77.1597)" class="st8" width="7.3" height="73.5"/>
		
			<rect x="58.8" y="124.9" transform="matrix(-1.836970e-16 1 -1 -1.836970e-16 213.1079 88.1826)" class="st21" width="7.3" height="51.4"/>
		
			<rect x="47.8" y="69.8" transform="matrix(-1.836970e-16 1 -1 -1.836970e-16 143.2967 40.4171)" class="st22" width="7.3" height="44.1"/>
		
			<rect x="84.5" y="77.2" transform="matrix(-1.836970e-16 1 -1 -1.836970e-16 180.0394 3.6743)" class="st22" width="7.3" height="29.4"/>
		
			<rect x="62.5" y="55.1" transform="matrix(-1.836970e-16 1 -1 -1.836970e-16 150.6453 18.3714)" class="st22" width="7.3" height="58.8"/>
		
			<rect x="51.4" y="66.1" transform="matrix(-1.836970e-16 1 -1 -1.836970e-16 132.2738 22.0458)" class="st22" width="7.3" height="22"/>
		<rect x="66.1" y="73.5" class="st23" width="14.7" height="7.3"/>
		<rect x="73.5" y="80.8" class="st23" width="14.7" height="7.3"/>
		<rect x="80.8" y="88.2" class="st23" width="14.7" height="7.3"/>
		<rect x="51.4" y="44.1" class="st22" width="7.3" height="29.4"/>
		<rect x="66.1" y="44.1" class="st23" width="7.3" height="29.4"/>
		<rect x="58.8" y="44.1" class="st24" width="7.3" height="29.4"/>
		<rect x="51.4" y="73.5" class="st24" width="7.3" height="7.3"/>
		
			<rect x="58.8" y="7.3" transform="matrix(-1.836970e-16 1 -1 -1.836970e-16 80.8339 -44.0912)" class="st25" width="7.3" height="22"/>
		
			<rect x="66.1" y="7.3" transform="matrix(-1.836970e-16 1 -1 -1.836970e-16 80.8339 -58.7883)" class="st25" width="7.3" height="7.3"/>
		
			<rect x="58.8" y="7.3" transform="matrix(-1.836970e-16 1 -1 -1.836970e-16 95.5311 -29.3942)" class="st23" width="7.3" height="51.4"/>
		
			<rect x="55.1" y="3.7" transform="matrix(-1.836970e-16 1 -1 -1.836970e-16 69.8111 -47.7655)" class="st26" width="7.3" height="14.7"/>
		
			<rect x="102.9" y="139.6" transform="matrix(-1.836970e-16 1 -1 -1.836970e-16 249.8506 36.7427)" class="st0" width="7.3" height="7.3"/>
		
			<rect x="-7.3" y="110.2" transform="matrix(6.123234e-17 -1 1 6.123234e-17 -110.2282 117.5768)" class="st0" width="22" height="7.3"/>
		
			<rect x="3.7" y="128.6" transform="matrix(6.123234e-17 -1 1 6.123234e-17 -121.251 143.2967)" class="st0" width="14.7" height="7.3"/>
		
			<rect x="14.7" y="139.6" transform="matrix(6.123234e-17 -1 1 6.123234e-17 -124.9253 161.668)" class="st0" width="7.3" height="7.3"/>
		
			<rect x="106.6" y="128.6" transform="matrix(6.123234e-17 -1 1 6.123234e-17 -18.3713 246.1763)" class="st0" width="14.7" height="7.3"/>
		
			<rect x="33.1" y="55.1" transform="matrix(6.123234e-17 -1 1 6.123234e-17 -11.0229 106.5539)" class="st0" width="29.4" height="7.3"/>
		
			<rect x="66.1" y="51.4" transform="matrix(6.123234e-17 -1 1 6.123234e-17 22.0455 132.2738)" class="st0" width="22" height="7.3"/>
		
			<rect x="40.4" y="11" transform="matrix(6.123234e-17 -1 1 6.123234e-17 33.0684 62.4626)" class="st0" width="14.7" height="7.3"/>
		
			<rect x="69.8" y="11" transform="matrix(6.123234e-17 -1 1 6.123234e-17 62.4626 91.8567)" class="st0" width="14.7" height="7.3"/>
		
			<rect x="84.5" y="69.8" transform="matrix(6.123234e-17 -1 1 6.123234e-17 11.0227 165.3423)" class="st0" width="7.3" height="14.7"/>
		
			<rect x="102.9" y="88.2" transform="matrix(6.123234e-17 -1 1 6.123234e-17 14.6971 198.4108)" class="st0" width="7.3" height="7.3"/>
		
			<rect x="110.2" y="95.5" transform="matrix(6.123234e-17 -1 1 6.123234e-17 14.6971 213.1079)" class="st0" width="7.3" height="7.3"/>
		
			<rect x="95.5" y="80.8" transform="matrix(6.123234e-17 -1 1 6.123234e-17 14.6971 183.7138)" class="st0" width="7.3" height="7.3"/>
		
			<rect x="110.2" y="110.2" transform="matrix(6.123234e-17 -1 1 6.123234e-17 7.3485 235.1535)" class="st0" width="22" height="7.3"/>
	</g>
	<rect x="29.4" y="102.9" class="st27" width="7.3" height="22"/>
	<rect x="36.7" y="124.9" class="st27" width="7.3" height="7.3"/>
	<rect x="73.5" y="102.9" class="st20" width="7.3" height="7.3"/>
	<rect x="58.8" y="132.3" class="st20" width="7.3" height="7.3"/>
	<rect x="95.5" y="124.9" class="st7" width="7.3" height="7.3"/>
	<rect x="102.9" y="110.2" class="st7" width="7.3" height="7.3"/>
	<rect x="44.1" y="110.2" class="st20" width="7.3" height="7.3"/>
	<rect x="14.7" y="110.2" class="st20" width="7.3" height="7.3"/>
	<rect x="29.4" y="95.5" class="st27" width="7.3" height="7.3"/>
	<rect x="36.7" y="88.2" class="st27" width="7.3" height="7.3"/>
	<rect x="22" y="88.2" class="st23" width="7.3" height="7.3"/>
	<rect x="29.4" y="80.8" class="st23" width="7.3" height="7.3"/>
</g>
</svg>
