<?xml version="1.0" encoding="utf-8"?>
<!-- Generator: Adobe Illustrator 21.0.0, SVG Export Plug-In . SVG Version: 6.00 Build 0)  -->
<svg version="1.1" id="Layer_1" xmlns="http://www.w3.org/2000/svg" xmlns:xlink="http://www.w3.org/1999/xlink" x="0px" y="0px"
	 viewBox="0 0 110.2 132.3" style="enable-background:new 0 0 110.2 132.3;" xml:space="preserve">
<style type="text/css">
	.st0{fill:#07042D;}
	.st1{fill:#FFE21F;}
	.st2{fill:#8342BE;}
	.st3{fill:#FF5A8E;}
	.st4{fill:#61DC78;}
	.st5{fill:#E7E7EF;}
	.st6{fill:#C2C2D6;}
	.st7{fill:#FF2968;}
	.st8{fill:#C40851;}
	.st9{fill:#FFEEFF;}
	.st10{fill:#4C4C70;}
	.st11{fill:#353554;}
	.st12{fill:#8686B2;}
	.st13{fill:#E8DC52;}
	.st14{fill:#F47D25;}
	.st15{fill:#FFA72E;}
	.st16{fill:#444468;}
	.st17{fill:#8E8EB7;}
	.st18{fill:#FFD91D;}
	.st19{fill:#E8B714;}
	.st20{fill:#FF99BA;}
	.st21{fill:#991054;}
	.st22{fill:#5FAA77;}
	.st23{fill:#195B4E;}
	.st24{fill:#E6E2AD;}
	.st25{fill:#C9704F;}
	.st26{fill:#EDA661;}
	.st27{fill:#FFFFEB;}
	.st28{fill:#ABABC3;}
	.st29{fill:#C7C7D7;}
	.st30{fill:#8888AA;}
	.st31{fill:#DFDFE8;}
	.st32{fill:#EFEFF3;}
	.st33{fill:#FBFBFB;}
	.st34{fill:#FFFFC9;}
	.st35{fill:#E5E5EC;}
	.st36{fill:#60608D;}
	.st37{fill:#BE523D;}
	.st38{fill:#AF3F27;}
	.st39{fill:#6A30A5;}
	.st40{fill:#532188;}
	.st41{fill:#FFD81F;}
	.st42{fill:#C5C4C4;}
	.st43{fill:#E6E6E6;}
	.st44{fill:#E3E3E3;}
	.st45{fill:#FFFFFF;}
	.st46{fill:#FFFF53;}
</style>
<g>
	<g>
		<rect y="29.4" class="st0" width="7.3" height="36.7"/>
		<rect x="51.4" y="7.3" class="st28" width="7.3" height="22"/>
		<rect x="58.8" y="14.7" class="st28" width="7.3" height="14.7"/>
		<rect x="66.1" y="14.7" class="st28" width="7.3" height="14.7"/>
		<rect x="36.7" y="95.5" class="st28" width="7.3" height="22"/>
		<rect x="44.1" y="102.9" class="st28" width="7.3" height="22"/>
		<rect x="29.4" y="44.1" class="st29" width="7.3" height="22"/>
		<rect x="73.5" y="44.1" class="st29" width="7.3" height="22"/>
		<rect x="66.1" y="95.5" class="st28" width="7.3" height="22"/>
		<rect x="58.8" y="102.9" class="st28" width="7.3" height="22"/>
		<rect x="51.4" y="110.2" class="st28" width="7.3" height="22"/>
		<rect x="29.4" y="80.8" class="st28" width="7.3" height="29.4"/>
		<rect x="36.7" y="36.7" class="st29" width="7.3" height="44.1"/>
		<rect x="66.1" y="36.7" class="st29" width="7.3" height="44.1"/>
		<rect x="44.1" y="36.7" class="st29" width="7.3" height="58.8"/>
		<rect x="58.8" y="36.7" class="st29" width="7.3" height="58.8"/>
		<rect x="51.4" y="36.7" class="st29" width="7.3" height="66.1"/>
		<rect x="73.5" y="80.8" class="st28" width="7.3" height="29.4"/>
		<rect x="36.7" y="14.7" class="st28" width="7.3" height="14.7"/>
		<rect x="29.4" y="22" class="st28" width="7.3" height="14.7"/>
		<rect x="73.5" y="22" class="st28" width="7.3" height="14.7"/>
		<rect x="22" y="22" class="st28" width="7.3" height="73.5"/>
		<rect x="80.8" y="22" class="st28" width="7.3" height="73.5"/>
		<rect x="14.7" y="29.4" class="st28" width="7.3" height="51.4"/>
		<rect x="88.2" y="29.4" class="st28" width="7.3" height="51.4"/>
		<rect x="7.3" y="29.4" class="st28" width="7.3" height="36.7"/>
		<rect x="22" y="51.4" class="st30" width="7.3" height="14.7"/>
		<rect x="22" y="44.1" class="st30" width="7.3" height="7.3"/>
		<rect x="29.4" y="36.7" class="st30" width="7.3" height="7.3"/>
		<rect x="29.4" y="66.1" class="st30" width="7.3" height="14.7"/>
		<rect x="73.5" y="36.7" class="st30" width="7.3" height="7.3"/>
		<rect x="22" y="36.7" class="st7" width="7.3" height="7.3"/>
		<rect x="95.5" y="22" class="st31" width="7.3" height="7.3"/>
		<rect x="36.7" y="80.8" class="st30" width="7.3" height="14.7"/>
		<rect x="29.4" y="95.5" class="st30" width="7.3" height="14.7"/>
		<rect x="22" y="88.2" class="st30" width="7.3" height="7.3"/>
		<rect x="14.7" y="73.5" class="st30" width="7.3" height="7.3"/>
		<rect x="80.8" y="88.2" class="st30" width="7.3" height="7.3"/>
		<rect x="88.2" y="73.5" class="st30" width="7.3" height="7.3"/>
		<rect x="73.5" y="95.5" class="st30" width="7.3" height="14.7"/>
		<rect x="36.7" y="110.2" class="st30" width="7.3" height="7.3"/>
		<rect x="66.1" y="110.2" class="st30" width="7.3" height="7.3"/>
		<rect x="44.1" y="117.6" class="st30" width="22" height="7.3"/>
		<rect x="80.8" y="44.1" class="st30" width="7.3" height="22"/>
		<rect x="95.5" y="29.4" class="st28" width="7.3" height="36.7"/>
		<rect x="44.1" y="14.7" class="st28" width="7.3" height="14.7"/>
		<rect x="36.7" y="117.6" class="st0" width="7.3" height="7.3"/>
		<rect x="29.4" y="110.2" class="st0" width="7.3" height="7.3"/>
		<rect x="22" y="14.7" class="st0" width="14.7" height="7.3"/>
		<rect x="7.3" y="22" class="st0" width="14.7" height="7.3"/>
		<rect x="51.4" class="st0" width="7.3" height="7.3"/>
		<rect x="66.1" y="117.6" class="st0" width="7.3" height="7.3"/>
		<rect x="36.7" y="7.3" class="st0" width="14.7" height="7.3"/>
		<rect x="14.7" y="80.8" class="st0" width="7.3" height="14.7"/>
		<rect x="22" y="95.5" class="st0" width="7.3" height="14.7"/>
		<rect x="7.3" y="66.1" class="st0" width="7.3" height="14.7"/>
		<rect x="44.1" y="124.9" class="st0" width="22" height="7.3"/>
		<rect x="102.9" y="29.4" class="st0" width="7.3" height="36.7"/>
		
			<rect x="73.5" y="14.7" transform="matrix(-1 -1.224647e-16 1.224647e-16 -1 161.6682 36.7427)" class="st0" width="14.7" height="7.3"/>
		
			<rect x="88.2" y="22" transform="matrix(-1 -1.224647e-16 1.224647e-16 -1 191.0623 51.4398)" class="st0" width="14.7" height="7.3"/>
		<rect x="88.2" y="80.8" class="st0" width="7.3" height="14.7"/>
		<rect x="80.8" y="95.5" class="st0" width="7.3" height="14.7"/>
		
			<rect x="95.5" y="66.1" transform="matrix(-1 -1.224647e-16 1.224647e-16 -1 198.4108 146.9711)" class="st0" width="7.3" height="14.7"/>
		<rect x="73.5" y="110.2" class="st0" width="7.3" height="7.3"/>
		
			<rect x="58.8" y="7.3" transform="matrix(-1 -1.224647e-16 1.224647e-16 -1 132.274 22.0456)" class="st0" width="14.7" height="7.3"/>
	</g>
	<rect x="51.4" y="22" class="st7" width="7.3" height="7.3"/>
	<rect x="80.8" y="36.7" class="st7" width="7.3" height="7.3"/>
	<rect x="29.4" y="80.8" class="st7" width="7.3" height="7.3"/>
	<rect x="44.1" y="51.4" class="st32" width="7.3" height="7.3"/>
	<rect x="36.7" y="58.8" class="st32" width="7.3" height="7.3"/>
	<rect x="51.4" y="44.1" class="st32" width="7.3" height="7.3"/>
	<rect x="58.8" y="36.7" class="st32" width="7.3" height="7.3"/>
	<rect x="51.4" y="66.1" class="st32" width="7.3" height="7.3"/>
	<rect x="44.1" y="73.5" class="st32" width="7.3" height="7.3"/>
	<rect x="58.8" y="58.8" class="st32" width="7.3" height="7.3"/>
	<rect x="66.1" y="51.4" class="st32" width="7.3" height="7.3"/>
	<rect x="73.5" y="44.1" class="st32" width="7.3" height="7.3"/>
	<rect x="73.5" y="80.8" class="st7" width="7.3" height="7.3"/>
	<rect x="51.4" y="110.2" class="st7" width="7.3" height="7.3"/>
	<rect x="36.7" y="29.4" class="st30" width="36.7" height="7.3"/>
	<rect x="44.1" y="95.5" class="st30" width="7.3" height="7.3"/>
	<rect x="51.4" y="102.9" class="st30" width="7.3" height="7.3"/>
	<rect x="58.8" y="95.5" class="st30" width="7.3" height="7.3"/>
	<rect x="66.1" y="80.8" class="st30" width="7.3" height="14.7"/>
	<rect x="73.5" y="66.1" class="st30" width="7.3" height="14.7"/>
</g>
</svg>
