<?xml version="1.0" encoding="utf-8"?>
<!-- Generator: Adobe Illustrator 21.0.0, SVG Export Plug-In . SVG Version: 6.00 Build 0)  -->
<svg version="1.1" id="Layer_1" xmlns="http://www.w3.org/2000/svg" xmlns:xlink="http://www.w3.org/1999/xlink" x="0px" y="0px"
	 viewBox="0 0 139.6 139.6" style="enable-background:new 0 0 139.6 139.6;" xml:space="preserve">
<style type="text/css">
	.st0{fill:#07042D;}
	.st1{fill:#FFE21F;}
	.st2{fill:#8342BE;}
	.st3{fill:#FF5A8E;}
	.st4{fill:#61DC78;}
	.st5{fill:#E7E7EF;}
	.st6{fill:#C2C2D6;}
	.st7{fill:#FF2968;}
	.st8{fill:#C40851;}
	.st9{fill:#FFEEFF;}
	.st10{fill:#4C4C70;}
	.st11{fill:#353554;}
	.st12{fill:#8686B2;}
	.st13{fill:#E8DC52;}
	.st14{fill:#F47D25;}
	.st15{fill:#FFA72E;}
	.st16{fill:#444468;}
	.st17{fill:#8E8EB7;}
	.st18{fill:#FFD91D;}
	.st19{fill:#E8B714;}
	.st20{fill:#FF99BA;}
	.st21{fill:#991054;}
	.st22{fill:#5FAA77;}
	.st23{fill:#195B4E;}
	.st24{fill:#E6E2AD;}
	.st25{fill:#C9704F;}
	.st26{fill:#EDA661;}
	.st27{fill:#FFFFEB;}
	.st28{fill:#ABABC3;}
	.st29{fill:#C7C7D7;}
	.st30{fill:#8888AA;}
	.st31{fill:#DFDFE8;}
	.st32{fill:#EFEFF3;}
	.st33{fill:#FBFBFB;}
	.st34{fill:#FFFFC9;}
	.st35{fill:#E5E5EC;}
	.st36{fill:#60608D;}
	.st37{fill:#BE523D;}
	.st38{fill:#AF3F27;}
	.st39{fill:#6A30A5;}
	.st40{fill:#532188;}
	.st41{fill:#FFD81F;}
	.st42{fill:#C5C4C4;}
	.st43{fill:#E6E6E6;}
	.st44{fill:#E3E3E3;}
	.st45{fill:#FFFFFF;}
	.st46{fill:#FFFF53;}
</style>
<g>
	
		<rect x="66.1" y="44.1" transform="matrix(-1.836970e-16 1 -1 -1.836970e-16 117.5768 -22.0458)" class="st0" width="7.3" height="7.3"/>
	
		<rect x="73.5" y="36.7" transform="matrix(-1.836970e-16 1 -1 -1.836970e-16 117.5768 -36.7428)" class="st0" width="7.3" height="7.3"/>
	
		<rect x="58.8" y="51.4" transform="matrix(-1.836970e-16 1 -1 -1.836970e-16 117.5768 -7.3487)" class="st0" width="7.3" height="7.3"/>
	
		<rect x="51.4" y="58.8" transform="matrix(-1.836970e-16 1 -1 -1.836970e-16 117.5767 7.3485)" class="st0" width="7.3" height="7.3"/>
	
		<rect x="44.1" y="66.1" transform="matrix(-1.836970e-16 1 -1 -1.836970e-16 117.5767 22.0457)" class="st0" width="7.3" height="7.3"/>
	
		<rect x="36.7" y="73.5" transform="matrix(-1.836970e-16 1 -1 -1.836970e-16 117.5768 36.7428)" class="st0" width="7.3" height="7.3"/>
	
		<rect x="29.4" y="80.8" transform="matrix(-1.836970e-16 1 -1 -1.836970e-16 117.5768 51.4399)" class="st0" width="7.3" height="7.3"/>
	
		<rect x="22" y="88.2" transform="matrix(-1.836970e-16 1 -1 -1.836970e-16 117.5768 66.137)" class="st0" width="7.3" height="7.3"/>
	
		<rect x="14.7" y="95.5" transform="matrix(-1.836970e-16 1 -1 -1.836970e-16 117.5768 80.8341)" class="st0" width="7.3" height="7.3"/>
	
		<rect x="7.3" y="102.9" transform="matrix(-1.836970e-16 1 -1 -1.836970e-16 117.5768 95.5312)" class="st0" width="7.3" height="7.3"/>
	
		<rect x="88.2" y="66.1" transform="matrix(-1.836970e-16 1 -1 -1.836970e-16 161.6681 -22.0457)" class="st0" width="7.3" height="7.3"/>
	
		<rect x="95.5" y="58.8" transform="matrix(-1.836970e-16 1 -1 -1.836970e-16 161.668 -36.7429)" class="st0" width="7.3" height="7.3"/>
	
		<rect x="80.8" y="73.5" transform="matrix(-1.836970e-16 1 -1 -1.836970e-16 161.6682 -7.3485)" class="st0" width="7.3" height="7.3"/>
	
		<rect x="73.5" y="80.8" transform="matrix(-1.836970e-16 1 -1 -1.836970e-16 161.6682 7.3485)" class="st0" width="7.3" height="7.3"/>
	
		<rect x="66.1" y="88.2" transform="matrix(-1.836970e-16 1 -1 -1.836970e-16 161.6682 22.0456)" class="st0" width="7.3" height="7.3"/>
	
		<rect x="58.8" y="95.5" transform="matrix(-1.836970e-16 1 -1 -1.836970e-16 161.6682 36.7427)" class="st0" width="7.3" height="7.3"/>
	
		<rect x="51.4" y="102.9" transform="matrix(-1.836970e-16 1 -1 -1.836970e-16 161.6681 51.4398)" class="st0" width="7.3" height="7.3"/>
	<rect x="66.1" y="22" class="st0" width="7.3" height="7.3"/>
	<rect x="58.8" y="7.3" class="st0" width="7.3" height="14.7"/>
	<rect x="73.5" y="29.4" class="st0" width="7.3" height="7.3"/>
	<rect x="80.8" y="36.7" class="st0" width="7.3" height="7.3"/>
	<rect x="88.2" y="44.1" class="st0" width="7.3" height="7.3"/>
	<rect x="95.5" y="51.4" class="st0" width="7.3" height="7.3"/>
	<rect x="102.9" y="58.8" class="st0" width="7.3" height="7.3"/>
	<rect x="110.2" y="66.1" class="st0" width="7.3" height="7.3"/>
	<rect x="117.6" y="73.5" class="st0" width="14.7" height="7.3"/>
	<rect x="66.1" y="7.3" class="st0" width="7.3" height="7.3"/>
	<rect x="95.5" y="22" class="st0" width="7.3" height="7.3"/>
	<rect x="102.9" y="14.7" class="st0" width="7.3" height="7.3"/>
	<rect x="124.9" y="7.3" class="st0" width="7.3" height="7.3"/>
	<rect x="117.6" class="st0" width="7.3" height="7.3"/>
	<rect x="132.3" y="14.7" class="st0" width="7.3" height="7.3"/>
	<rect x="110.2" class="st0" width="7.3" height="14.7"/>
	<rect x="117.6" y="29.4" class="st0" width="7.3" height="7.3"/>
	<rect x="124.9" y="22" class="st0" width="14.7" height="7.3"/>
	<rect x="110.2" y="36.7" class="st0" width="7.3" height="7.3"/>
	<rect x="124.9" y="66.1" class="st0" width="7.3" height="7.3"/>
	<rect x="73.5" y="14.7" class="st0" width="7.3" height="7.3"/>
	<rect x="80.8" y="22" class="st0" width="7.3" height="7.3"/>
	<rect x="88.2" y="29.4" class="st0" width="7.3" height="7.3"/>
	<rect x="95.5" y="36.7" class="st0" width="7.3" height="7.3"/>
	<rect x="102.9" y="44.1" class="st0" width="7.3" height="7.3"/>
	<rect x="110.2" y="51.4" class="st0" width="7.3" height="7.3"/>
	<rect x="117.6" y="58.8" class="st0" width="7.3" height="7.3"/>
	
		<rect x="44.1" y="110.2" transform="matrix(-1.836970e-16 1 -1 -1.836970e-16 161.668 66.137)" class="st0" width="7.3" height="7.3"/>
	
		<rect x="36.7" y="117.6" transform="matrix(-1.836970e-16 1 -1 -1.836970e-16 161.668 80.8341)" class="st0" width="7.3" height="7.3"/>
	
		<rect x="29.4" y="124.9" transform="matrix(-1.836970e-16 1 -1 -1.836970e-16 161.668 95.5312)" class="st0" width="7.3" height="7.3"/>
	
		<rect x="11" y="121.3" transform="matrix(-1.836970e-16 1 -1 -1.836970e-16 150.6452 121.251)" class="st0" width="7.3" height="29.4"/>
	
		<rect x="-7.3" y="117.6" transform="matrix(-1.836970e-16 1 -1 -1.836970e-16 124.9253 117.5768)" class="st0" width="22" height="7.3"/>
	<rect x="110.2" y="14.7" class="st25" width="7.3" height="22"/>
	<rect x="95.5" y="29.4" class="st25" width="7.3" height="7.3"/>
	<rect x="124.9" y="14.7" class="st25" width="7.3" height="7.3"/>
	<rect x="7.3" y="110.2" class="st35" width="7.3" height="22"/>
	<rect x="88.2" y="51.4" class="st28" width="7.3" height="14.7"/>
	<rect x="14.7" y="102.9" class="st28" width="7.3" height="29.4"/>
	<rect x="22" y="95.5" class="st28" width="7.3" height="36.7"/>
	<rect x="29.4" y="88.2" class="st28" width="7.3" height="36.7"/>
	<rect x="36.7" y="80.8" class="st28" width="7.3" height="36.7"/>
	<rect x="44.1" y="73.5" class="st28" width="7.3" height="36.7"/>
	<rect x="51.4" y="66.1" class="st28" width="7.3" height="36.7"/>
	<rect x="58.8" y="58.8" class="st28" width="7.3" height="36.7"/>
	<rect x="66.1" y="51.4" class="st28" width="7.3" height="36.7"/>
	<rect x="73.5" y="44.1" class="st28" width="7.3" height="36.7"/>
	<rect x="80.8" y="44.1" class="st28" width="7.3" height="29.4"/>
	<g>
		
			<rect x="80.8" y="51.4" transform="matrix(-1.836970e-16 1 -1 -1.836970e-16 139.6224 -29.3943)" class="st36" width="7.3" height="7.3"/>
		
			<rect x="66.1" y="14.7" transform="matrix(-1.836970e-16 1 -1 -1.836970e-16 88.1826 -51.4399)" class="st37" width="7.3" height="7.3"/>
		
			<rect x="73.5" y="22" transform="matrix(-1.836970e-16 1 -1 -1.836970e-16 102.8797 -51.4399)" class="st38" width="7.3" height="7.3"/>
		
			<rect x="80.8" y="29.4" transform="matrix(-1.836970e-16 1 -1 -1.836970e-16 117.5768 -51.4399)" class="st37" width="7.3" height="7.3"/>
		
			<rect x="88.2" y="36.7" transform="matrix(-1.836970e-16 1 -1 -1.836970e-16 132.2738 -51.4399)" class="st38" width="7.3" height="7.3"/>
		
			<rect x="95.5" y="44.1" transform="matrix(-1.836970e-16 1 -1 -1.836970e-16 146.9709 -51.4399)" class="st37" width="7.3" height="7.3"/>
		
			<rect x="102.9" y="51.4" transform="matrix(-1.836970e-16 1 -1 -1.836970e-16 161.668 -51.4399)" class="st38" width="7.3" height="7.3"/>
		
			<rect x="110.2" y="58.8" transform="matrix(-1.836970e-16 1 -1 -1.836970e-16 176.3651 -51.4399)" class="st37" width="7.3" height="7.3"/>
		
			<rect x="95.5" y="29.4" transform="matrix(-1.836970e-16 1 -1 -1.836970e-16 139.6224 -73.4855)" class="st38" width="22" height="7.3"/>
		
			<rect x="110.2" y="14.7" transform="matrix(-1.836970e-16 1 -1 -1.836970e-16 139.6224 -102.8797)" class="st38" width="22" height="7.3"/>
		
			<rect x="117.6" y="66.1" transform="matrix(-1.836970e-16 1 -1 -1.836970e-16 191.0622 -51.4398)" class="st38" width="7.3" height="7.3"/>
		
			<rect x="73.5" y="58.8" transform="matrix(-1.836970e-16 1 -1 -1.836970e-16 139.6224 -14.6972)" class="st36" width="7.3" height="7.3"/>
		
			<rect x="66.1" y="66.1" transform="matrix(-1.836970e-16 1 -1 -1.836970e-16 139.6225 -7.575101e-05)" class="st36" width="7.3" height="7.3"/>
		
			<rect x="58.8" y="73.5" transform="matrix(-1.836970e-16 1 -1 -1.836970e-16 139.6225 14.6971)" class="st36" width="7.3" height="7.3"/>
		
			<rect x="51.4" y="80.8" transform="matrix(-1.836970e-16 1 -1 -1.836970e-16 139.6225 29.3942)" class="st36" width="7.3" height="7.3"/>
		
			<rect x="44.1" y="88.2" transform="matrix(-1.836970e-16 1 -1 -1.836970e-16 139.6224 44.0914)" class="st36" width="7.3" height="7.3"/>
		
			<rect x="36.7" y="95.5" transform="matrix(-1.836970e-16 1 -1 -1.836970e-16 139.6224 58.7885)" class="st36" width="7.3" height="7.3"/>
		
			<rect x="29.4" y="102.9" transform="matrix(-1.836970e-16 1 -1 -1.836970e-16 139.6224 73.4855)" class="st36" width="7.3" height="7.3"/>
		
			<rect x="22" y="110.2" transform="matrix(-1.836970e-16 1 -1 -1.836970e-16 139.6224 88.1826)" class="st36" width="7.3" height="7.3"/>
	</g>
	<rect x="7.3" y="124.9" class="st35" width="22" height="7.3"/>
	<rect x="29.4" y="88.2" class="st35" width="7.3" height="7.3"/>
	<rect x="36.7" y="80.8" class="st35" width="7.3" height="7.3"/>
	<rect x="22" y="95.5" class="st35" width="7.3" height="7.3"/>
	<rect x="14.7" y="102.9" class="st35" width="7.3" height="7.3"/>
	<rect x="58.8" y="58.8" class="st35" width="7.3" height="7.3"/>
	<rect x="66.1" y="51.4" class="st35" width="7.3" height="7.3"/>
	<rect x="73.5" y="44.1" class="st35" width="7.3" height="7.3"/>
	<rect x="73.5" y="73.5" class="st35" width="7.3" height="7.3"/>
	<rect x="44.1" y="73.5" class="st35" width="7.3" height="7.3"/>
	<rect x="51.4" y="66.1" class="st35" width="7.3" height="7.3"/>
</g>
</svg>
